<svg width="180" height="180" viewBox="0 0 180 180" fill="none" xmlns="http://www.w3.org/2000/svg">
<path d="M180 87.349C179.942 86.2589 179.503 85.2249 178.762 84.4302C178.02 83.6354 177.024 83.1312 175.95 83.007L164.856 81.1941C164.357 81.1115 163.898 80.8682 163.547 80.5006C163.196 80.1329 162.972 79.6607 162.909 79.1541C162.697 77.7781 162.476 76.3497 162.173 74.9956C162.075 74.503 162.133 73.992 162.337 73.5339C162.541 73.0757 162.881 72.6933 163.311 72.4401L173.168 66.9143C174.147 66.4106 174.908 65.5613 175.307 64.5279C175.706 63.4946 175.714 62.3492 175.331 61.3098L173.622 56.5484C173.247 55.5054 172.505 54.6386 171.536 54.1139C170.568 53.5892 169.442 53.4435 168.374 53.7046L157.318 55.8887C156.824 55.978 156.314 55.9073 155.862 55.6869C155.41 55.4665 155.038 55.1075 154.8 54.6613C154.155 53.4425 153.454 52.2019 152.723 50.9832C152.457 50.549 152.333 50.0418 152.367 49.5327C152.401 49.0235 152.592 48.5379 152.913 48.1438L160.269 39.5645C161.016 38.7546 161.446 37.6976 161.477 36.5913C161.508 35.485 161.139 34.4051 160.438 33.5538L157.227 29.6617C156.529 28.8074 155.541 28.2451 154.456 28.0837C153.37 27.9223 152.264 28.1733 151.351 28.788L141.672 34.6546C141.243 34.9142 140.743 35.0275 140.245 34.978C139.747 34.9284 139.278 34.7186 138.907 34.3794C137.838 33.4315 136.744 32.5185 135.718 31.6754C135.325 31.3619 135.04 30.9298 134.907 30.442C134.773 29.9542 134.796 29.436 134.974 28.9627L138.981 18.3042C139.417 17.2872 139.468 16.1438 139.124 15.0912C138.781 14.0387 138.066 13.1503 137.116 12.5948L132.75 10.0219C131.799 9.4685 130.68 9.28862 129.606 9.51672C128.532 9.74483 127.579 10.3649 126.93 11.2581L119.856 20.2306C119.601 20.6206 119.22 20.9089 118.778 21.046C118.336 21.1831 117.86 21.1605 117.433 20.9819C117.169 20.8727 114.936 19.951 113.201 19.3657C112.725 19.2091 112.311 18.9028 112.02 18.4918C111.729 18.0807 111.576 17.5864 111.583 17.081L111.751 5.69297C111.812 4.58099 111.468 3.48495 110.786 2.6101C110.103 1.73526 109.128 1.1416 108.043 0.940297L103.089 0.0666428C102.01 -0.121625 100.899 0.0921345 99.9639 0.6682C99.0288 1.24426 98.3327 2.14346 98.0048 3.19869L94.327 14.0364C94.1599 14.5175 93.8446 14.9319 93.4272 15.2188C93.0098 15.5058 92.5123 15.6501 92.0077 15.6308H87.789C87.2883 15.6412 86.797 15.4918 86.3853 15.204C85.9735 14.9161 85.6622 14.5045 85.4957 14.0276L81.8351 3.25111C81.5131 2.18817 80.8183 1.28021 79.8808 0.697239C78.9433 0.114273 77.8275 -0.103708 76.7423 0.0841163L71.7794 0.95777C70.7014 1.15748 69.7318 1.74533 69.0506 2.61216C68.3694 3.47899 68.0229 4.56592 68.0755 5.67113L68.2486 17.0985C68.2521 17.6114 68.0913 18.1117 67.7904 18.5249C67.4894 18.9382 67.0644 19.2422 66.5784 19.3919C65.5875 19.7806 63.4371 20.6106 62.4592 20.9775C61.5938 21.2921 60.6505 20.947 59.889 20.0602L52.8534 11.3237C52.2079 10.425 51.2561 9.7989 50.181 9.56586C49.1059 9.33282 47.9834 9.50926 47.0294 10.0612L42.6765 12.6079C41.7161 13.1644 40.9937 14.0601 40.6486 15.1224C40.3034 16.1846 40.36 17.3383 40.8073 18.361L44.8097 28.9933C44.9843 29.4676 45.0072 29.9853 44.8753 30.4734C44.7433 30.9616 44.4631 31.3957 44.0741 31.7147C43.0226 32.5884 41.9452 33.4621 40.8722 34.4318C40.5037 34.7683 40.0382 34.977 39.5439 35.0273C39.0495 35.0776 38.5522 34.9669 38.1246 34.7114L28.5578 28.7312C27.6391 28.128 26.534 27.8838 25.4498 28.0447C24.3655 28.2056 23.3767 28.7603 22.6688 29.6049L19.4712 33.4883C18.7609 34.3338 18.3846 35.4141 18.4141 36.5223C18.4436 37.6306 18.877 38.6889 19.6313 39.4946L27.0217 48.0652C27.3497 48.4514 27.5457 48.934 27.5808 49.4414C27.6159 49.9489 27.4881 50.4543 27.2164 50.8827C26.4765 52.0709 25.7712 53.3202 25.1308 54.5695C24.8913 55.0189 24.5169 55.3802 24.0614 55.6015C23.6058 55.8228 23.0926 55.8928 22.5953 55.8014L11.5573 53.6478C10.4886 53.3875 9.36233 53.5335 8.39347 54.058C7.4246 54.5825 6.68094 55.4488 6.3044 56.4916L4.57363 61.2442C4.19108 62.285 4.20002 63.4313 4.59877 64.4659C4.99752 65.5005 5.75836 66.3514 6.73709 66.8575L16.5938 72.3833C17.0371 72.6303 17.3887 73.0162 17.5955 73.4827C17.8024 73.9493 17.8533 74.4711 17.7404 74.9693L17.6366 75.5241C17.4116 76.7429 17.2039 77.8961 17.0049 79.1236C16.9361 79.6237 16.7124 80.0891 16.3658 80.4531C16.0191 80.8172 15.5674 81.0613 15.0751 81.1504L3.95921 82.9633C2.87214 83.098 1.87082 83.6276 1.14225 84.4532C0.413677 85.2787 0.00767804 86.3438 7.37769e-05 87.4495V92.5079C-0.00626117 93.6178 0.395575 94.6907 1.12777 95.5186C1.85997 96.3466 2.87045 96.8708 3.96353 96.9898L15.0751 98.7983C15.5744 98.8802 16.034 99.1233 16.385 99.4911C16.736 99.8588 16.9595 100.331 17.0222 100.838C17.2342 102.219 17.4549 103.643 17.7578 104.997C17.8554 105.489 17.7981 106 17.5941 106.459C17.3901 106.917 17.0495 107.299 16.6198 107.552L6.76738 113.087C5.78864 113.591 5.02742 114.44 4.62852 115.473C4.22962 116.507 4.22086 117.652 4.60392 118.691L6.33469 123.453C6.71036 124.495 7.45321 125.361 8.42135 125.886C9.3895 126.41 10.5151 126.557 11.5832 126.297L22.6385 124.134C23.1329 124.044 23.643 124.114 24.0955 124.334C24.548 124.555 24.9196 124.915 25.1568 125.362C25.8058 126.585 26.5025 127.821 27.2337 129.04C27.5006 129.474 27.6258 129.981 27.5916 130.49C27.5574 131 27.3657 131.486 27.0433 131.879L19.6876 140.454C18.9316 141.258 18.4924 142.313 18.4525 143.42C18.4127 144.528 18.775 145.612 19.4712 146.469L22.6775 150.361C23.3753 151.216 24.363 151.779 25.4488 151.941C26.5345 152.102 27.641 151.851 28.5534 151.235L38.2327 145.368C38.6619 145.109 39.1623 144.995 39.6602 145.045C40.1581 145.095 40.627 145.304 40.9977 145.644C42.0707 146.591 43.1611 147.504 44.1866 148.348C44.5798 148.661 44.8642 149.093 44.9988 149.581C45.1333 150.068 45.111 150.586 44.9352 151.06L40.9241 161.719C40.4878 162.736 40.4366 163.879 40.7804 164.932C41.1242 165.984 41.839 166.873 42.789 167.428L47.1635 169.979C48.1137 170.533 49.2328 170.714 50.3066 170.486C51.3804 170.259 52.3335 169.64 52.9832 168.747L60.1443 159.858C60.75 159.102 61.702 158.766 62.4073 159.054C63.913 159.683 64.9212 160.037 66.7082 160.64C67.1842 160.797 67.5982 161.103 67.89 161.514C68.1818 161.925 68.3363 162.419 68.3308 162.924L68.1577 174.304C68.0993 175.415 68.4433 176.51 69.1256 177.385C69.8078 178.259 70.7818 178.853 71.8659 179.056L76.8202 179.93C77.8999 180.12 79.0112 179.907 79.9467 179.331C80.8823 178.755 81.5781 177.854 81.9044 176.798L85.5822 165.978C85.7487 165.496 86.0639 165.082 86.4814 164.795C86.8989 164.507 87.3967 164.363 87.9015 164.383H92.1202C92.6211 164.372 93.1126 164.521 93.5245 164.809C93.9364 165.097 94.2475 165.509 94.4135 165.987L98.0784 176.763C98.3623 177.699 98.9356 178.518 99.7143 179.1C100.493 179.683 101.436 179.998 102.405 180C102.664 180.001 102.921 179.977 103.176 179.93L108.138 179.056C109.216 178.857 110.186 178.269 110.867 177.402C111.548 176.535 111.895 175.448 111.842 174.343L111.669 162.916C111.666 162.412 111.821 161.921 112.113 161.512C112.405 161.104 112.818 160.8 113.292 160.644C114.953 160.081 116.122 159.626 117.147 159.225L117.407 159.124C118.748 158.657 119.397 159.225 119.774 159.696L127.021 168.708C127.671 169.599 128.623 170.218 129.696 170.445C130.769 170.672 131.887 170.492 132.837 169.94L137.194 167.393C138.147 166.837 138.864 165.947 139.208 164.891C139.552 163.836 139.499 162.689 139.059 161.671L135.061 151.038C134.884 150.565 134.86 150.047 134.991 149.559C135.122 149.07 135.402 148.636 135.792 148.317C136.843 147.443 137.921 146.57 138.994 145.6C139.365 145.262 139.833 145.054 140.33 145.005C140.827 144.956 141.326 145.07 141.754 145.329L151.442 151.183C152.361 151.787 153.466 152.031 154.551 151.87C155.635 151.71 156.624 151.154 157.331 150.309L160.533 146.421C161.243 145.576 161.62 144.495 161.59 143.387C161.561 142.279 161.127 141.22 160.373 140.415L152.991 131.822C152.663 131.436 152.467 130.954 152.432 130.446C152.397 129.939 152.525 129.433 152.797 129.005C153.537 127.821 154.242 126.572 154.882 125.318C155.123 124.87 155.497 124.509 155.953 124.288C156.408 124.067 156.921 123.996 157.418 124.086L168.443 126.257C169.512 126.518 170.638 126.372 171.607 125.847C172.575 125.322 173.319 124.456 173.696 123.413L175.405 118.661C175.787 117.621 175.778 116.475 175.379 115.441C174.98 114.407 174.22 113.557 173.241 113.052L163.376 107.517C162.939 107.268 162.593 106.883 162.39 106.42C162.186 105.956 162.136 105.439 162.247 104.944L162.35 104.39C162.575 103.171 162.783 102.018 162.982 100.79C163.051 100.29 163.275 99.8246 163.621 99.4606C163.968 99.0966 164.42 98.8525 164.912 98.7633L176.028 96.9548C177.118 96.8221 178.122 96.2928 178.853 95.4663C179.584 94.6397 179.992 93.5724 180 92.4643V87.349ZM57.7861 128.411C57.2469 129.357 56.4929 130.161 55.5861 130.756C54.6793 131.352 53.6456 131.721 52.5698 131.834C51.4941 131.948 50.4071 131.802 49.398 131.409C48.389 131.016 47.4867 130.386 46.7654 129.573C37.0175 118.691 31.6352 104.534 31.6688 89.8624C31.7024 75.1911 37.1495 61.0588 46.9472 50.2231C47.6722 49.4098 48.5783 48.782 49.5908 48.3915C50.6033 48.0011 51.6932 47.8591 52.7707 47.9772C53.8483 48.0954 54.8825 48.4704 55.7884 49.0712C56.6942 49.672 57.4457 50.4816 57.9808 51.4331L77.7332 86.5322C78.3263 87.579 78.6384 88.764 78.6384 89.97C78.6384 91.1759 78.3263 92.361 77.7332 93.4078L57.7861 128.411ZM90 149.02C85.8825 149.021 81.7764 148.582 77.7505 147.71C76.7017 147.473 75.7229 146.991 74.8933 146.301C74.0638 145.611 73.4069 144.734 72.9758 143.74C72.5447 142.746 72.3516 141.664 72.4121 140.581C72.4726 139.498 72.785 138.444 73.3241 137.505L93.2279 102.559C93.8266 101.506 94.69 100.631 95.7308 100.023C96.7717 99.415 97.9531 99.0949 99.1558 99.0953H139.024C140.098 99.0936 141.157 99.3474 142.116 99.836C143.075 100.325 143.906 101.034 144.542 101.908C145.178 102.781 145.602 103.794 145.778 104.863C145.955 105.933 145.879 107.029 145.558 108.063C137.99 131.792 115.962 149.02 90 149.02ZM93.2495 77.4243L73.5577 42.417C73.0241 41.477 72.717 40.4233 72.6613 39.3413C72.6056 38.2593 72.8029 37.1792 73.2371 36.1883C73.6714 35.1975 74.3305 34.3237 75.1612 33.6377C75.9919 32.9516 76.9708 32.4724 78.0188 32.2389C81.9584 31.4008 85.9738 30.9791 90 30.9809C115.962 30.9809 137.99 48.2093 145.545 71.9509C145.866 72.9853 145.942 74.0817 145.765 75.1512C145.589 76.2206 145.165 77.2331 144.529 78.1064C143.893 78.9798 143.062 79.6896 142.103 80.1782C141.144 80.6669 140.085 80.9206 139.011 80.9189H99.2034C97.9933 80.9213 96.8042 80.599 95.7581 79.985C94.7119 79.3709 93.8462 78.4872 93.2495 77.4243Z" fill="#7B7B7B"/>
</svg>
